<?xml version="1.0" encoding="utf-8"?>
<!DOCTYPE svg PUBLIC "-//W3C//DTD SVG 1.1//EN" "http://www.w3.org/Graphics/SVG/1.1/DTD/svg11.dtd">
<svg version="1.1" id="Layer_1" xmlns="http://www.w3.org/2000/svg" xmlns:xlink="http://www.w3.org/1999/xlink" x="0px" y="0px"
	 width="150px" height="150px" viewBox="0 0 150 150" enable-background="new 0 0 150 150" xml:space="preserve">

<g>
<path fill="#F25D50" d="M81.87,41.05v17.08H68.13V41.05c0-3.79,3.07-6.87,6.87-6.87c1.9,0,3.62,0.77,4.86,2.01
	C81.1,37.44,81.87,39.16,81.87,41.05z">
	<animateTransform attributeName="transform"
                      attributeType="XML"
                      type="translate"
                      dur="1s"
                      values="0,10;0,-10;0,10;"
                      repeatCount="indefinite"/>
</path>
<path fill="#F25D50" d="M81.87,91.87v17.08c0,3.79-3.07,6.87-6.87,6.87c-1.9,0-3.62-0.77-4.86-2.01c-1.24-1.25-2.01-2.97-2.01-4.86
	V91.87H81.87z">
	<animateTransform attributeName="transform"
                      attributeType="XML"
                      type="translate"
                      dur="1s"
                      values="0,-10;0,10;0,-10;"
                      repeatCount="indefinite"/>
</path>
<path fill="#2D999F" d="M58.13,68.13v13.74H41.05c-3.79,0-6.87-3.07-6.87-6.87c0-1.9,0.77-3.62,2.01-4.86
	c1.25-1.24,2.97-2.01,4.86-2.01H58.13z">
	<animateTransform attributeName="transform"
                      attributeType="XML"
                      type="translate"
                      dur="1s"
                      values="10,0;-10,0;10,0;"
                      repeatCount="indefinite"/>
</path>
<path fill="#2D999F" d="M115.82,75c0,1.9-0.77,3.62-2.01,4.86c-1.25,1.24-2.97,2.01-4.86,2.01H91.87V68.13h17.08
	C112.74,68.13,115.82,71.2,115.82,75z">
	<animateTransform attributeName="transform"
                      attributeType="XML"
                      type="translate"
                      dur="1s"
                      values="-10,0;10,0;-10,0;"
                      repeatCount="indefinite"/>
</path>
<animateTransform attributeName="transform"
                    attributeType="XML"
                    type="rotate"
                    from="0 75 75"
                    to="360 75 75"
                    dur="2s"
                    repeatCount="indefinite"/>
</g>
</svg>
