<?xml version="1.0" encoding="utf-8"?>
<!DOCTYPE svg PUBLIC "-//W3C//DTD SVG 1.1//EN" "http://www.w3.org/Graphics/SVG/1.1/DTD/svg11.dtd">
<svg version="1.1" id="Layer_1" xmlns="http://www.w3.org/2000/svg" xmlns:xlink="http://www.w3.org/1999/xlink" x="0px" y="0px"
	 width="150px" height="150px" viewBox="0 0 150 150" enable-background="new 0 0 150 150" xml:space="preserve">
<g>
	<path fill="#00AEEF" d="M116.59,47.25h-12.8C110.73,54.43,115,64.22,115,75c0,22.09-17.91,40-40,40S35,97.09,35,75
		c0-10.78,4.27-20.57,11.21-27.75h-12.8C28.1,55.19,25,64.73,25,75c0,27.61,22.39,50,50,50s50-22.39,50-50
		C125,64.73,121.9,55.19,116.59,47.25z"/>
	<path fill="#FBB040" d="M113.62,43.25h-14.3C92.59,38.07,84.15,35,75,35s-17.59,3.07-24.32,8.25h-14.3C45.55,32.11,59.45,25,75,25
		S104.45,32.11,113.62,43.25z"/>

		<animateTransform attributeName="transform"
                    attributeType="XML"
                    type="rotate"
                    from="0 75 75"
                    to="360 75 75"
                    dur="1.1s"
                    repeatCount="indefinite"/>
</g>
</svg>
